<svg height="92" width="335" xmlns="http://www.w3.org/2000/svg"><g fill="none" fill-rule="evenodd"><path d="M49.564 90L32.966 56.542H17.984V90H.731V.546H33.71C54.893.546 65.2 11.684 65.2 28.326c0 12.404-6.027 20.397-15.025 24.896L68.696 90zm-31.58-74.953v27.037h15.332c9.915 0 14.807-4.848 14.807-13.41 0-7.905-4.324-13.627-14.414-13.627zm90.634 76.22c-20.136 0-32.497-12.973-32.497-33.939 0-20.485 11.706-35.292 31.798-35.292 17.035 0 30.008 10.7 30.008 32.235v7.12H92.5c1.092 9.958 6.333 15.986 15.986 15.986 8.08 0 11.75-4.324 13.54-9.304l15.2 4.106c-2.445 9.216-11.18 19.088-28.609 19.088zm-.83-55.473c-7.775 0-13.016 5.11-14.807 13.934h28.872c0-7.906-5.154-13.934-14.065-13.934zm59.316 17.297V90h-16.947V22.91h15.9v8.517h.698c3.625-5.504 10.133-9.391 18.607-9.391 11.75 0 22.276 7.163 22.276 25.814V90h-16.99V48.549c0-7.994-4.805-12.536-11.226-12.536-7.557 0-12.318 6.639-12.318 17.078zm87.751-30.182v12.58H243.15V69.47c0 6.246 3.058 7.163 6.77 7.163 1.573 0 3.19-.218 4.325-.524l2.664 13.06c-1.266.524-5.503 1.704-11.706 1.704-10.177 0-19-7.033-19-18.826v-36.56h-8.343V22.91h8.343V8.582h16.947V22.91z" fill="#767677"/><path d="M276.346 24.578c-5.504 0-9.74-4.062-9.74-8.998 0-4.804 4.236-8.998 9.74-8.998s9.565 4.194 9.565 8.998c0 4.936-4.062 8.998-9.565 8.998zm8.43 5.331V90h-16.948V29.91zm47.697-7v12.58h-11.706V69.47c0 6.246 3.058 7.163 6.77 7.163 1.573 0 3.189-.218 4.324-.524l2.665 13.06c-1.267.524-5.504 1.704-11.706 1.704-10.177 0-19-7.033-19-18.826v-36.56h-8.343V22.91h8.343V8.582h16.947V22.91z" fill="#22a3bb"/></g></svg>